<svg width="640" height="482" viewBox="0 0 640 482" fill="none" xmlns="http://www.w3.org/2000/svg">
<path opacity="0.45" d="M331.632 430.457C459.824 430.457 563.744 416.012 563.744 398.193C563.744 380.374 459.824 365.93 331.632 365.93C203.44 365.93 99.52 380.374 99.52 398.193C99.52 416.012 203.44 430.457 331.632 430.457Z" fill="#E6E6E6"/>
<path d="M187.776 399.712C187.776 399.712 186.176 404.924 181.632 405.564C177.088 406.203 176.096 410.776 180.304 411.719C184.512 412.662 194.912 406.763 194.912 406.763L194.24 400.128L187.776 399.712Z" fill="#0F7173"/>
<path opacity="0.58" d="M456.56 373.076C456.56 373.076 441.856 369.127 438.608 355.489C438.608 355.489 461.344 350.805 462.096 374.275L456.56 373.076Z" fill="#0E686A"/>
<path opacity="0.73" d="M458.368 371.605C458.368 371.605 448.032 355.441 456.992 340.237C456.992 340.237 474.352 351.157 466.752 371.605H458.368Z" fill="#159395"/>
<path d="M461.008 371.605C461.008 371.605 466.352 354.466 482.736 351.157C482.736 351.157 485.936 362.252 472.208 371.605H461.008Z" fill="#0F7173"/>
<path d="M450.352 371.269L453.408 391.622H472.176L474.848 371.269H450.352Z" fill="#24285B"/>
<path d="M421.968 76.1327H239.36V398.193H421.968V76.1327Z" fill="#C9C9C9"/>
<path d="M405.616 113.448H254.464V343.754H405.616V113.448Z" fill="white"/>
<path d="M374.592 190.558H287.184V312.418H374.592V190.558Z" fill="#E6E6E6"/>
<path opacity="0.08" d="M337.2 213.405L340.8 196.01L356.8 210.143L372.4 262.983L377.2 260.585L381.568 270.961L374.608 274.575L387.6 301.147C387.6 301.147 350.8 356.257 279.6 332.387L269.2 345.385L310 398.145H239.36L240.512 322.091L239.36 239.913V195.946C239.36 195.946 253.472 192.749 259.344 201.718C262.824 207.024 264.066 213.488 262.8 219.704L256.8 220.551L259.344 250.673L283.6 284.071L302 315.344L330.672 314.944L358 304.952L367.76 290.115L355.6 264.534L337.2 213.405Z" fill="black"/>
<path opacity="0.56" d="M330.672 387.913C340.542 387.913 348.544 379.917 348.544 370.054C348.544 360.191 340.542 352.196 330.672 352.196C320.802 352.196 312.8 360.191 312.8 370.054C312.8 379.917 320.802 387.913 330.672 387.913Z" fill="white"/>
<path opacity="0.12" d="M366.416 88.923H315.216V96.3894H366.416V88.923Z" fill="black"/>
<path d="M296.672 101.809C301.276 101.809 305.008 98.0799 305.008 93.4796C305.008 88.8792 301.276 85.1499 296.672 85.1499C292.068 85.1499 288.336 88.8792 288.336 93.4796C288.336 98.0799 292.068 101.809 296.672 101.809Z" fill="white"/>
<path d="M214.16 207.745C214.16 207.745 212.032 216.618 212.656 222.822C212.718 223.421 212.897 224.003 213.184 224.533C213.471 225.063 213.86 225.531 214.328 225.911C214.796 226.291 215.334 226.576 215.912 226.748C216.49 226.92 217.096 226.977 217.696 226.915C219.647 226.822 221.529 226.169 223.118 225.035C224.707 223.901 225.936 222.333 226.656 220.519L230.528 213.037C231.144 211.459 231.254 209.729 230.845 208.085C230.435 206.441 229.525 204.965 228.24 203.86C223.696 199.431 215.168 202.277 214.16 207.745Z" fill="#F4A28C"/>
<path d="M230.384 216.634L235.344 241.304L220.192 245.061L222.672 221.127L230.384 216.634Z" fill="#F4A28C"/>
<path d="M222.592 216.906C222.592 216.906 223.184 213.437 225.792 214.092C228.4 214.748 227.552 219.752 223.936 219.704L222.592 216.906Z" fill="#F4A28C"/>
<path d="M213.104 213.405L210.08 216.507C209.907 216.681 209.781 216.897 209.714 217.134C209.647 217.371 209.641 217.621 209.697 217.86C209.753 218.1 209.869 218.321 210.034 218.504C210.199 218.686 210.407 218.824 210.64 218.905L214 220.072L213.104 213.405Z" fill="#F4A28C"/>
<path opacity="0.31" d="M222.272 225.012C223.964 223.946 225.472 222.612 226.736 221.063C226.736 221.063 228.944 230.096 221.424 233.246L222.272 225.012Z" fill="#CE8172"/>
<path d="M213.68 195.882C213.68 195.882 206.944 202.133 214.768 206.018C222.592 209.904 223.2 208.241 223.2 208.241C223.2 208.241 219.168 218.793 226.656 220.551L230.784 218.953C230.784 218.953 239.872 207.202 235.488 201.846C235.488 201.814 229.312 185.33 213.68 195.882Z" fill="#24285B"/>
<path d="M222.224 242.599C222.224 242.599 271.52 231.967 280.096 253.535C288.672 275.102 254.944 343.067 254.944 343.067L208 340.573C208 340.573 150.656 270.658 222.224 242.599Z" fill="#0F7173"/>
<path opacity="0.08" d="M230.4 272.544L246.912 281.114C246.912 281.114 246.64 316.943 221.408 341.292L207.984 340.573C206.739 339.118 205.595 337.579 204.56 335.968C203.44 334.034 230.4 272.544 230.4 272.544Z" fill="black"/>
<path d="M221.92 218.089C221.92 218.089 225.296 211.55 228.32 214.892C231.344 218.233 225.68 224.469 221.92 218.089Z" fill="#F4A28C"/>
<path d="M138.448 252.623L190.4 230.848L231.168 266.661C231.168 266.661 227.632 315.488 199.792 340.924C196.539 343.947 192.686 346.253 188.484 347.692C184.281 349.131 179.823 349.672 175.398 349.278C170.973 348.885 166.681 347.566 162.799 345.408C158.917 343.25 155.532 340.301 152.864 336.752C141.52 321.739 131.2 295.631 138.448 252.623Z" fill="#FFD200"/>
<path opacity="0.57" d="M152.544 265.11L186.96 250.721L214 274.463C214 274.463 211.648 306.87 193.2 323.737C191.04 325.745 188.481 327.276 185.69 328.23C182.899 329.185 179.938 329.542 177 329.278C174.062 329.014 171.212 328.135 168.636 326.699C166.06 325.262 163.815 323.3 162.048 320.94C154.576 310.963 147.712 293.648 152.544 265.11Z" fill="white"/>
<path d="M253.328 245.94C256.55 243.686 260.415 242.535 264.346 242.658C268.278 242.782 272.063 244.175 275.136 246.628C282.016 251.952 291.696 262.312 298.096 281.146C308.928 313.121 331.984 315.136 359.2 291.202L366.304 300.363C366.304 300.363 306.56 359.135 260.8 292.161C241.408 263.831 245.792 251.408 253.328 245.94Z" fill="#179B9D"/>
<path opacity="0.2" d="M253.328 245.94C256.55 243.686 260.415 242.535 264.346 242.658C268.278 242.782 272.063 244.175 275.136 246.628C282.016 251.952 291.696 262.312 298.096 281.146C308.928 313.121 331.984 315.136 359.2 291.202L366.304 300.363C366.304 300.363 306.56 359.135 260.8 292.161C241.408 263.831 245.792 251.408 253.328 245.94Z" fill="#0F7173"/>
<path d="M208 340.573L187.648 356.561C182.891 360.299 179.5 365.5 178.002 371.359C176.504 377.218 176.981 383.408 179.36 388.968L184.8 401.663H194.4L191.6 385.003C191.008 381.5 191.511 377.901 193.04 374.694C194.569 371.487 197.049 368.829 200.144 367.081V367.081C213.513 359.517 227.486 353.073 241.92 347.815L254.992 343.019L208 340.573Z" fill="#24285B"/>
<path d="M355.088 274.607L322.288 220.168L323.68 200.151L341.36 211.326L364.752 270.945L355.088 274.607Z" fill="#FFD200"/>
<path d="M351.104 275.39L354.272 281.465L359.136 278.923L370.752 301.178L377.232 297.805L365.616 275.55L370.48 273.024L367.312 266.948L351.104 275.39Z" fill="#FFD200"/>
<path opacity="0.57" d="M351.104 275.39L354.272 281.465L359.136 278.923L370.752 301.178L377.232 297.805L365.616 275.55L370.48 273.024L367.312 266.948L351.104 275.39Z" fill="white"/>
<path opacity="0.08" d="M323.68 200.151L359.616 270.961L363.888 268.739L341.36 211.326L323.68 200.151Z" fill="black"/>
<path d="M254.944 343.051L296.864 398.913L286.256 404.3C286.256 404.3 252.384 359.902 221.808 350.597L254.944 343.051Z" fill="#24285B"/>
<path d="M360.928 293.424C360.928 293.424 365.36 284.359 369.136 283.416C372.912 282.473 381.12 294.416 365.024 298.716L360.928 293.424Z" fill="#F4A28C"/>
<path d="M293.968 400.879C293.968 400.879 297.296 405.164 301.808 404.077C306.32 402.989 308.864 406.955 305.28 409.353C301.696 411.751 289.856 409.976 289.856 409.976L288.08 403.581L293.968 400.879Z" fill="#0F7173"/>
<path opacity="0.45" d="M118.032 224.373C145.134 224.373 167.104 202.419 167.104 175.338C167.104 148.256 145.134 126.303 118.032 126.303C90.9303 126.303 68.96 148.256 68.96 175.338C68.96 202.419 90.9303 224.373 118.032 224.373Z" fill="#E6E6E6"/>
<path d="M140.8 165.857C140.05 161.95 138.309 158.301 135.743 155.259C133.177 152.218 129.873 149.886 126.146 148.486C122.42 147.087 118.396 146.667 114.461 147.267C110.525 147.867 106.81 149.467 103.671 151.914C100.532 154.36 98.0738 157.571 96.5326 161.239C94.9915 164.907 94.4188 168.908 94.8694 172.861C95.3199 176.813 96.7787 180.584 99.1058 183.811C101.433 187.039 104.551 189.615 108.16 191.294L110.896 205.491L117.648 204.196L115.568 193.356C116.69 193.468 117.818 193.5 118.944 193.452L120.896 203.572L127.648 202.277L125.712 192.157C126.91 191.716 128.071 191.182 129.184 190.558L131.296 201.526L138.048 200.231L135.264 185.73C137.659 183.069 139.406 179.89 140.366 176.443C141.326 172.995 141.475 169.372 140.8 165.857V165.857ZM110.064 180.837C106.176 181.589 102.336 178.599 101.488 174.155C100.64 169.71 103.088 165.521 106.976 164.77C110.864 164.018 114.688 167.024 115.552 171.453C116.416 175.881 114 180.086 110.112 180.822L110.064 180.837ZM128.864 177.224C124.992 177.976 121.152 174.986 120.288 170.541C119.424 166.097 121.888 161.908 125.776 161.156C129.664 160.405 133.488 163.411 134.352 167.839C135.216 172.268 132.8 176.473 128.912 177.208L128.864 177.224Z" fill="#C9C9C9"/>
<path opacity="0.45" d="M514.432 239.593C541.534 239.593 563.504 217.639 563.504 190.558C563.504 163.477 541.534 141.523 514.432 141.523C487.33 141.523 465.36 163.477 465.36 190.558C465.36 217.639 487.33 239.593 514.432 239.593Z" fill="#E6E6E6"/>
<path d="M539.072 192.557C540.197 188.74 540.322 184.7 539.435 180.821C538.548 176.943 536.68 173.357 534.009 170.407C531.337 167.458 527.953 165.243 524.179 163.975C520.406 162.707 516.369 162.429 512.457 163.167C508.545 163.906 504.888 165.635 501.837 168.191C498.786 170.746 496.443 174.042 495.032 177.762C493.621 181.482 493.19 185.502 493.779 189.436C494.369 193.37 495.96 197.087 498.4 200.231L494.4 214.124L501.008 216.059L504.128 205.459C505.071 206.06 506.054 206.594 507.072 207.058L504.096 217.018L510.704 218.953L513.6 209.024C514.861 209.204 516.135 209.274 517.408 209.232L514.208 219.96L520.816 221.894L524.976 207.729C528.342 206.466 531.368 204.437 533.814 201.804C536.261 199.171 538.061 196.005 539.072 192.557V192.557ZM504.88 191.821C501.088 190.702 499.04 186.289 500.32 181.957C501.6 177.624 505.696 175.002 509.488 176.121C513.28 177.24 515.328 181.653 514.048 185.986C512.768 190.318 508.672 192.94 504.88 191.821V191.821ZM523.2 197.209C519.408 196.09 517.36 191.677 518.64 187.345C519.92 183.012 524.016 180.39 527.808 181.509C531.6 182.628 533.648 187.025 532.384 191.374C531.12 195.722 527.04 198.312 523.2 197.209Z" fill="#C9C9C9"/>
<path opacity="0.45" d="M376.08 137.526H287.184V167.855H376.08V137.526Z" fill="#E6E6E6"/>
<path d="M300.944 156.696C303.197 156.696 305.024 154.87 305.024 152.619C305.024 150.367 303.197 148.542 300.944 148.542C298.691 148.542 296.864 150.367 296.864 152.619C296.864 154.87 298.691 156.696 300.944 156.696Z" fill="#C9C9C9"/>
<path d="M315.216 156.696C317.469 156.696 319.296 154.87 319.296 152.619C319.296 150.367 317.469 148.542 315.216 148.542C312.963 148.542 311.136 150.367 311.136 152.619C311.136 154.87 312.963 156.696 315.216 156.696Z" fill="#C9C9C9"/>
<path d="M330.144 156.696C332.397 156.696 334.224 154.87 334.224 152.619C334.224 150.367 332.397 148.542 330.144 148.542C327.891 148.542 326.064 150.367 326.064 152.619C326.064 154.87 327.891 156.696 330.144 156.696Z" fill="#C9C9C9"/>
<path d="M344.416 156.696C346.669 156.696 348.496 154.87 348.496 152.619C348.496 150.367 346.669 148.542 344.416 148.542C342.163 148.542 340.336 150.367 340.336 152.619C340.336 154.87 342.163 156.696 344.416 156.696Z" fill="#C9C9C9"/>
<path d="M359.808 156.696C362.061 156.696 363.888 154.87 363.888 152.619C363.888 150.367 362.061 148.542 359.808 148.542C357.555 148.542 355.728 150.367 355.728 152.619C355.728 154.87 357.555 156.696 359.808 156.696Z" fill="#C9C9C9"/>
</svg>
